%TF.GenerationSoftware,KiCad,Pcbnew,7.0.10*%
%TF.CreationDate,2024-01-28T18:06:39+01:00*%
%TF.ProjectId,daisy_01,64616973-795f-4303-912e-6b696361645f,rev?*%
%TF.SameCoordinates,Original*%
%TF.FileFunction,Soldermask,Top*%
%TF.FilePolarity,Negative*%
%FSLAX46Y46*%
G04 Gerber Fmt 4.6, Leading zero omitted, Abs format (unit mm)*
G04 Created by KiCad (PCBNEW 7.0.10) date 2024-01-28 18:06:39*
%MOMM*%
%LPD*%
G01*
G04 APERTURE LIST*
G04 Aperture macros list*
%AMRoundRect*
0 Rectangle with rounded corners*
0 $1 Rounding radius*
0 $2 $3 $4 $5 $6 $7 $8 $9 X,Y pos of 4 corners*
0 Add a 4 corners polygon primitive as box body*
4,1,4,$2,$3,$4,$5,$6,$7,$8,$9,$2,$3,0*
0 Add four circle primitives for the rounded corners*
1,1,$1+$1,$2,$3*
1,1,$1+$1,$4,$5*
1,1,$1+$1,$6,$7*
1,1,$1+$1,$8,$9*
0 Add four rect primitives between the rounded corners*
20,1,$1+$1,$2,$3,$4,$5,0*
20,1,$1+$1,$4,$5,$6,$7,0*
20,1,$1+$1,$6,$7,$8,$9,0*
20,1,$1+$1,$8,$9,$2,$3,0*%
G04 Aperture macros list end*
%ADD10RoundRect,0.381000X0.381000X0.381000X-0.381000X0.381000X-0.381000X-0.381000X0.381000X-0.381000X0*%
%ADD11C,1.524000*%
%ADD12R,2.250000X2.250000*%
%ADD13C,2.250000*%
%ADD14RoundRect,0.450000X0.450000X-0.450000X0.450000X0.450000X-0.450000X0.450000X-0.450000X-0.450000X0*%
%ADD15C,1.800000*%
%ADD16R,1.600000X1.600000*%
%ADD17C,1.600000*%
%ADD18R,1.800000X1.800000*%
%ADD19R,1.700000X1.700000*%
%ADD20C,1.700000*%
%ADD21RoundRect,0.650000X0.650000X0.650000X-0.650000X0.650000X-0.650000X-0.650000X0.650000X-0.650000X0*%
%ADD22C,2.600000*%
%ADD23C,2.500000*%
%ADD24O,1.700000X1.700000*%
%ADD25RoundRect,0.425000X-0.425000X0.425000X-0.425000X-0.425000X0.425000X-0.425000X0.425000X0.425000X0*%
%ADD26R,1.050000X1.500000*%
%ADD27O,1.050000X1.500000*%
%ADD28O,1.600000X1.600000*%
G04 APERTURE END LIST*
D10*
%TO.C,SW2*%
X137160000Y-121920000D03*
D11*
X132080000Y-121920000D03*
X134620000Y-121920000D03*
X134620000Y-124460000D03*
X129540000Y-121920000D03*
%TD*%
D12*
%TO.C,SW3*%
X115420000Y-121920000D03*
D13*
X121920000Y-121920000D03*
%TD*%
D14*
%TO.C,RV2*%
X151090000Y-107995000D03*
D15*
X148590000Y-107995000D03*
X146090000Y-107995000D03*
%TD*%
D16*
%TO.C,C1*%
X176530000Y-120610000D03*
D17*
X176530000Y-118110000D03*
%TD*%
D14*
%TO.C,RV3*%
X132080000Y-107995000D03*
D15*
X129580000Y-107995000D03*
X127080000Y-107995000D03*
%TD*%
D18*
%TO.C,D1*%
X184150000Y-107315000D03*
D15*
X181610000Y-107315000D03*
%TD*%
D19*
%TO.C,U1*%
X104140000Y-128844400D03*
D20*
X106680000Y-128844400D03*
X109220000Y-128844400D03*
X111760000Y-128844400D03*
X114300000Y-128844400D03*
X116840000Y-128844400D03*
X119380000Y-128844400D03*
X121920000Y-128844400D03*
X124460000Y-128844400D03*
X127000000Y-128844400D03*
X129540000Y-128844400D03*
X132080000Y-128844400D03*
X134620000Y-128844400D03*
X137160000Y-128844400D03*
X139700000Y-128844400D03*
X142240000Y-128844400D03*
X144780000Y-128844400D03*
X147320000Y-128844400D03*
X149860000Y-128844400D03*
X152400000Y-128844400D03*
X152400000Y-113604400D03*
X149860000Y-113604400D03*
X147320000Y-113604400D03*
X144780000Y-113604400D03*
X142240000Y-113604400D03*
X139700000Y-113604400D03*
X137160000Y-113604400D03*
X134620000Y-113604400D03*
X132080000Y-113604400D03*
X129540000Y-113604400D03*
X127000000Y-113604400D03*
X124460000Y-113604400D03*
X121920000Y-113604400D03*
X119380000Y-113604400D03*
X116840000Y-113604400D03*
X114300000Y-113604400D03*
X111760000Y-113604400D03*
X109220000Y-113604400D03*
X106680000Y-113604400D03*
X104140000Y-113604400D03*
%TD*%
D14*
%TO.C,RV1*%
X170140000Y-107995000D03*
D15*
X167640000Y-107995000D03*
X165140000Y-107995000D03*
%TD*%
D21*
%TO.C,SW1*%
X162560000Y-123190000D03*
D22*
X157480000Y-123190000D03*
%TD*%
D16*
%TO.C,C2*%
X167680000Y-121920000D03*
D17*
X170180000Y-121920000D03*
%TD*%
D23*
%TO.C,screw1*%
X108585000Y-121285000D03*
%TD*%
D19*
%TO.C,BT1*%
X160020000Y-127000000D03*
D24*
X160020000Y-129540000D03*
%TD*%
D14*
%TO.C,RV4*%
X111720000Y-107995000D03*
D15*
X109220000Y-107995000D03*
X106720000Y-107995000D03*
%TD*%
D25*
%TO.C,J3*%
X184150000Y-119380000D03*
D20*
X184150000Y-121920000D03*
%TD*%
D26*
%TO.C,Q1*%
X160020000Y-115570000D03*
D27*
X158750000Y-115570000D03*
X157480000Y-115570000D03*
%TD*%
D25*
%TO.C,J1*%
X184150000Y-125730000D03*
D20*
X184150000Y-128270000D03*
%TD*%
D17*
%TO.C,R2*%
X172720000Y-128844400D03*
D28*
X165100000Y-128844400D03*
%TD*%
D17*
%TO.C,R1*%
X175260000Y-113604400D03*
D28*
X167640000Y-113604400D03*
%TD*%
D23*
%TO.C,screw2*%
X179070000Y-127000000D03*
%TD*%
D25*
%TO.C,J2*%
X184150000Y-113030000D03*
D20*
X184150000Y-115570000D03*
%TD*%
M02*
