M48
; DRILL file {KiCad 7.0.10} date dom 28 gen 2024, 18:06:19
; FORMAT={-:-/ absolute / inch / decimal}
; #@! TF.CreationDate,2024-01-28T18:06:19+01:00
; #@! TF.GenerationSoftware,Kicad,Pcbnew,7.0.10
; #@! TF.FileFunction,Plated,1,2,PTH
FMAT,2
INCH
; #@! TA.AperFunction,Plated,PTH,ComponentDrill
T1C0.0295
; #@! TA.AperFunction,Plated,PTH,ComponentDrill
T2C0.0300
; #@! TA.AperFunction,Plated,PTH,ComponentDrill
T3C0.0315
; #@! TA.AperFunction,Plated,PTH,ComponentDrill
T4C0.0354
; #@! TA.AperFunction,Plated,PTH,ComponentDrill
T5C0.0394
; #@! TA.AperFunction,Plated,PTH,ComponentDrill
T6C0.0512
%
G90
G05
T1
X6.2Y-4.55
X6.25Y-4.55
X6.3Y-4.55
T2
X5.1Y-4.8
X5.2Y-4.8
X5.3Y-4.8
X5.3Y-4.9
X5.4Y-4.8
T3
X6.5Y-5.0726
X6.6Y-4.4726
X6.6016Y-4.8
X6.7Y-4.8
X6.8Y-5.0726
X6.9Y-4.4726
X6.95Y-4.65
X6.95Y-4.7484
T4
X7.15Y-4.225
X7.25Y-4.225
T5
X4.1Y-4.4726
X4.1Y-5.0726
X4.2Y-4.4726
X4.2Y-5.0726
X4.2016Y-4.2518
X4.3Y-4.2518
X4.3Y-4.4726
X4.3Y-5.0726
X4.3984Y-4.2518
X4.4Y-4.4726
X4.4Y-5.0726
X4.5Y-4.4726
X4.5Y-5.0726
X4.6Y-4.4726
X4.6Y-5.0726
X4.7Y-4.4726
X4.7Y-5.0726
X4.8Y-4.4726
X4.8Y-5.0726
X4.9Y-4.4726
X4.9Y-5.0726
X5.0Y-4.4726
X5.0Y-5.0726
X5.0031Y-4.2518
X5.1Y-4.4726
X5.1Y-5.0726
X5.1016Y-4.2518
X5.2Y-4.2518
X5.2Y-4.4726
X5.2Y-5.0726
X5.3Y-4.4726
X5.3Y-5.0726
X5.4Y-4.4726
X5.4Y-5.0726
X5.5Y-4.4726
X5.5Y-5.0726
X5.6Y-4.4726
X5.6Y-5.0726
X5.7Y-4.4726
X5.7Y-5.0726
X5.7516Y-4.2518
X5.8Y-4.4726
X5.8Y-5.0726
X5.85Y-4.2518
X5.9Y-4.4726
X5.9Y-5.0726
X5.9484Y-4.2518
X6.0Y-4.4726
X6.0Y-5.0726
X6.3Y-5.0
X6.3Y-5.1
X6.5016Y-4.2518
X6.6Y-4.2518
X6.6984Y-4.2518
X7.25Y-4.45
X7.25Y-4.55
X7.25Y-4.7
X7.25Y-4.8
X7.25Y-4.95
X7.25Y-5.05
T6
X4.5441Y-4.8
X4.8Y-4.8
X6.2Y-4.85
X6.4Y-4.85
M30
