%TF.GenerationSoftware,KiCad,Pcbnew,7.0.10*%
%TF.CreationDate,2024-01-28T18:06:39+01:00*%
%TF.ProjectId,daisy_01,64616973-795f-4303-912e-6b696361645f,rev?*%
%TF.SameCoordinates,Original*%
%TF.FileFunction,Legend,Bot*%
%TF.FilePolarity,Positive*%
%FSLAX46Y46*%
G04 Gerber Fmt 4.6, Leading zero omitted, Abs format (unit mm)*
G04 Created by KiCad (PCBNEW 7.0.10) date 2024-01-28 18:06:39*
%MOMM*%
%LPD*%
G01*
G04 APERTURE LIST*
%ADD10C,0.150000*%
G04 APERTURE END LIST*
D10*
X130473220Y-116338152D02*
X130473220Y-117004819D01*
X130473220Y-116433390D02*
X130425601Y-116385771D01*
X130425601Y-116385771D02*
X130330363Y-116338152D01*
X130330363Y-116338152D02*
X130187506Y-116338152D01*
X130187506Y-116338152D02*
X130092268Y-116385771D01*
X130092268Y-116385771D02*
X130044649Y-116481009D01*
X130044649Y-116481009D02*
X130044649Y-117004819D01*
X129187506Y-116957200D02*
X129282744Y-117004819D01*
X129282744Y-117004819D02*
X129473220Y-117004819D01*
X129473220Y-117004819D02*
X129568458Y-116957200D01*
X129568458Y-116957200D02*
X129616077Y-116861961D01*
X129616077Y-116861961D02*
X129616077Y-116481009D01*
X129616077Y-116481009D02*
X129568458Y-116385771D01*
X129568458Y-116385771D02*
X129473220Y-116338152D01*
X129473220Y-116338152D02*
X129282744Y-116338152D01*
X129282744Y-116338152D02*
X129187506Y-116385771D01*
X129187506Y-116385771D02*
X129139887Y-116481009D01*
X129139887Y-116481009D02*
X129139887Y-116576247D01*
X129139887Y-116576247D02*
X129616077Y-116671485D01*
X128282744Y-116338152D02*
X128282744Y-117004819D01*
X128711315Y-116338152D02*
X128711315Y-116861961D01*
X128711315Y-116861961D02*
X128663696Y-116957200D01*
X128663696Y-116957200D02*
X128568458Y-117004819D01*
X128568458Y-117004819D02*
X128425601Y-117004819D01*
X128425601Y-117004819D02*
X128330363Y-116957200D01*
X128330363Y-116957200D02*
X128282744Y-116909580D01*
X127806553Y-117004819D02*
X127806553Y-116338152D01*
X127806553Y-116433390D02*
X127758934Y-116385771D01*
X127758934Y-116385771D02*
X127663696Y-116338152D01*
X127663696Y-116338152D02*
X127520839Y-116338152D01*
X127520839Y-116338152D02*
X127425601Y-116385771D01*
X127425601Y-116385771D02*
X127377982Y-116481009D01*
X127377982Y-116481009D02*
X127377982Y-117004819D01*
X127377982Y-116481009D02*
X127330363Y-116385771D01*
X127330363Y-116385771D02*
X127235125Y-116338152D01*
X127235125Y-116338152D02*
X127092268Y-116338152D01*
X127092268Y-116338152D02*
X126997029Y-116385771D01*
X126997029Y-116385771D02*
X126949410Y-116481009D01*
X126949410Y-116481009D02*
X126949410Y-117004819D01*
X125711315Y-116338152D02*
X125711315Y-117338152D01*
X125711315Y-116385771D02*
X125616077Y-116338152D01*
X125616077Y-116338152D02*
X125425601Y-116338152D01*
X125425601Y-116338152D02*
X125330363Y-116385771D01*
X125330363Y-116385771D02*
X125282744Y-116433390D01*
X125282744Y-116433390D02*
X125235125Y-116528628D01*
X125235125Y-116528628D02*
X125235125Y-116814342D01*
X125235125Y-116814342D02*
X125282744Y-116909580D01*
X125282744Y-116909580D02*
X125330363Y-116957200D01*
X125330363Y-116957200D02*
X125425601Y-117004819D01*
X125425601Y-117004819D02*
X125616077Y-117004819D01*
X125616077Y-117004819D02*
X125711315Y-116957200D01*
X124425601Y-116957200D02*
X124520839Y-117004819D01*
X124520839Y-117004819D02*
X124711315Y-117004819D01*
X124711315Y-117004819D02*
X124806553Y-116957200D01*
X124806553Y-116957200D02*
X124854172Y-116861961D01*
X124854172Y-116861961D02*
X124854172Y-116481009D01*
X124854172Y-116481009D02*
X124806553Y-116385771D01*
X124806553Y-116385771D02*
X124711315Y-116338152D01*
X124711315Y-116338152D02*
X124520839Y-116338152D01*
X124520839Y-116338152D02*
X124425601Y-116385771D01*
X124425601Y-116385771D02*
X124377982Y-116481009D01*
X124377982Y-116481009D02*
X124377982Y-116576247D01*
X124377982Y-116576247D02*
X124854172Y-116671485D01*
X123520839Y-117004819D02*
X123520839Y-116004819D01*
X123520839Y-116957200D02*
X123616077Y-117004819D01*
X123616077Y-117004819D02*
X123806553Y-117004819D01*
X123806553Y-117004819D02*
X123901791Y-116957200D01*
X123901791Y-116957200D02*
X123949410Y-116909580D01*
X123949410Y-116909580D02*
X123997029Y-116814342D01*
X123997029Y-116814342D02*
X123997029Y-116528628D01*
X123997029Y-116528628D02*
X123949410Y-116433390D01*
X123949410Y-116433390D02*
X123901791Y-116385771D01*
X123901791Y-116385771D02*
X123806553Y-116338152D01*
X123806553Y-116338152D02*
X123616077Y-116338152D01*
X123616077Y-116338152D02*
X123520839Y-116385771D01*
X122616077Y-117004819D02*
X122616077Y-116481009D01*
X122616077Y-116481009D02*
X122663696Y-116385771D01*
X122663696Y-116385771D02*
X122758934Y-116338152D01*
X122758934Y-116338152D02*
X122949410Y-116338152D01*
X122949410Y-116338152D02*
X123044648Y-116385771D01*
X122616077Y-116957200D02*
X122711315Y-117004819D01*
X122711315Y-117004819D02*
X122949410Y-117004819D01*
X122949410Y-117004819D02*
X123044648Y-116957200D01*
X123044648Y-116957200D02*
X123092267Y-116861961D01*
X123092267Y-116861961D02*
X123092267Y-116766723D01*
X123092267Y-116766723D02*
X123044648Y-116671485D01*
X123044648Y-116671485D02*
X122949410Y-116623866D01*
X122949410Y-116623866D02*
X122711315Y-116623866D01*
X122711315Y-116623866D02*
X122616077Y-116576247D01*
X121997029Y-117004819D02*
X122092267Y-116957200D01*
X122092267Y-116957200D02*
X122139886Y-116861961D01*
X122139886Y-116861961D02*
X122139886Y-116004819D01*
X120949409Y-116338152D02*
X120711314Y-117004819D01*
X120711314Y-117004819D02*
X120473219Y-116338152D01*
X119568457Y-117004819D02*
X120139885Y-117004819D01*
X119854171Y-117004819D02*
X119854171Y-116004819D01*
X119854171Y-116004819D02*
X119949409Y-116147676D01*
X119949409Y-116147676D02*
X120044647Y-116242914D01*
X120044647Y-116242914D02*
X120139885Y-116290533D01*
X119139885Y-116909580D02*
X119092266Y-116957200D01*
X119092266Y-116957200D02*
X119139885Y-117004819D01*
X119139885Y-117004819D02*
X119187504Y-116957200D01*
X119187504Y-116957200D02*
X119139885Y-116909580D01*
X119139885Y-116909580D02*
X119139885Y-117004819D01*
X118473219Y-116004819D02*
X118377981Y-116004819D01*
X118377981Y-116004819D02*
X118282743Y-116052438D01*
X118282743Y-116052438D02*
X118235124Y-116100057D01*
X118235124Y-116100057D02*
X118187505Y-116195295D01*
X118187505Y-116195295D02*
X118139886Y-116385771D01*
X118139886Y-116385771D02*
X118139886Y-116623866D01*
X118139886Y-116623866D02*
X118187505Y-116814342D01*
X118187505Y-116814342D02*
X118235124Y-116909580D01*
X118235124Y-116909580D02*
X118282743Y-116957200D01*
X118282743Y-116957200D02*
X118377981Y-117004819D01*
X118377981Y-117004819D02*
X118473219Y-117004819D01*
X118473219Y-117004819D02*
X118568457Y-116957200D01*
X118568457Y-116957200D02*
X118616076Y-116909580D01*
X118616076Y-116909580D02*
X118663695Y-116814342D01*
X118663695Y-116814342D02*
X118711314Y-116623866D01*
X118711314Y-116623866D02*
X118711314Y-116385771D01*
X118711314Y-116385771D02*
X118663695Y-116195295D01*
X118663695Y-116195295D02*
X118616076Y-116100057D01*
X118616076Y-116100057D02*
X118568457Y-116052438D01*
X118568457Y-116052438D02*
X118473219Y-116004819D01*
X130520839Y-117710057D02*
X130473220Y-117662438D01*
X130473220Y-117662438D02*
X130377982Y-117614819D01*
X130377982Y-117614819D02*
X130139887Y-117614819D01*
X130139887Y-117614819D02*
X130044649Y-117662438D01*
X130044649Y-117662438D02*
X129997030Y-117710057D01*
X129997030Y-117710057D02*
X129949411Y-117805295D01*
X129949411Y-117805295D02*
X129949411Y-117900533D01*
X129949411Y-117900533D02*
X129997030Y-118043390D01*
X129997030Y-118043390D02*
X130568458Y-118614819D01*
X130568458Y-118614819D02*
X129949411Y-118614819D01*
X129330363Y-117614819D02*
X129235125Y-117614819D01*
X129235125Y-117614819D02*
X129139887Y-117662438D01*
X129139887Y-117662438D02*
X129092268Y-117710057D01*
X129092268Y-117710057D02*
X129044649Y-117805295D01*
X129044649Y-117805295D02*
X128997030Y-117995771D01*
X128997030Y-117995771D02*
X128997030Y-118233866D01*
X128997030Y-118233866D02*
X129044649Y-118424342D01*
X129044649Y-118424342D02*
X129092268Y-118519580D01*
X129092268Y-118519580D02*
X129139887Y-118567200D01*
X129139887Y-118567200D02*
X129235125Y-118614819D01*
X129235125Y-118614819D02*
X129330363Y-118614819D01*
X129330363Y-118614819D02*
X129425601Y-118567200D01*
X129425601Y-118567200D02*
X129473220Y-118519580D01*
X129473220Y-118519580D02*
X129520839Y-118424342D01*
X129520839Y-118424342D02*
X129568458Y-118233866D01*
X129568458Y-118233866D02*
X129568458Y-117995771D01*
X129568458Y-117995771D02*
X129520839Y-117805295D01*
X129520839Y-117805295D02*
X129473220Y-117710057D01*
X129473220Y-117710057D02*
X129425601Y-117662438D01*
X129425601Y-117662438D02*
X129330363Y-117614819D01*
X128616077Y-117710057D02*
X128568458Y-117662438D01*
X128568458Y-117662438D02*
X128473220Y-117614819D01*
X128473220Y-117614819D02*
X128235125Y-117614819D01*
X128235125Y-117614819D02*
X128139887Y-117662438D01*
X128139887Y-117662438D02*
X128092268Y-117710057D01*
X128092268Y-117710057D02*
X128044649Y-117805295D01*
X128044649Y-117805295D02*
X128044649Y-117900533D01*
X128044649Y-117900533D02*
X128092268Y-118043390D01*
X128092268Y-118043390D02*
X128663696Y-118614819D01*
X128663696Y-118614819D02*
X128044649Y-118614819D01*
X127187506Y-117948152D02*
X127187506Y-118614819D01*
X127425601Y-117567200D02*
X127663696Y-118281485D01*
X127663696Y-118281485D02*
X127044649Y-118281485D01*
X126663696Y-118519580D02*
X126616077Y-118567200D01*
X126616077Y-118567200D02*
X126663696Y-118614819D01*
X126663696Y-118614819D02*
X126711315Y-118567200D01*
X126711315Y-118567200D02*
X126663696Y-118519580D01*
X126663696Y-118519580D02*
X126663696Y-118614819D01*
X125997030Y-117614819D02*
X125901792Y-117614819D01*
X125901792Y-117614819D02*
X125806554Y-117662438D01*
X125806554Y-117662438D02*
X125758935Y-117710057D01*
X125758935Y-117710057D02*
X125711316Y-117805295D01*
X125711316Y-117805295D02*
X125663697Y-117995771D01*
X125663697Y-117995771D02*
X125663697Y-118233866D01*
X125663697Y-118233866D02*
X125711316Y-118424342D01*
X125711316Y-118424342D02*
X125758935Y-118519580D01*
X125758935Y-118519580D02*
X125806554Y-118567200D01*
X125806554Y-118567200D02*
X125901792Y-118614819D01*
X125901792Y-118614819D02*
X125997030Y-118614819D01*
X125997030Y-118614819D02*
X126092268Y-118567200D01*
X126092268Y-118567200D02*
X126139887Y-118519580D01*
X126139887Y-118519580D02*
X126187506Y-118424342D01*
X126187506Y-118424342D02*
X126235125Y-118233866D01*
X126235125Y-118233866D02*
X126235125Y-117995771D01*
X126235125Y-117995771D02*
X126187506Y-117805295D01*
X126187506Y-117805295D02*
X126139887Y-117710057D01*
X126139887Y-117710057D02*
X126092268Y-117662438D01*
X126092268Y-117662438D02*
X125997030Y-117614819D01*
X124711316Y-118614819D02*
X125282744Y-118614819D01*
X124997030Y-118614819D02*
X124997030Y-117614819D01*
X124997030Y-117614819D02*
X125092268Y-117757676D01*
X125092268Y-117757676D02*
X125187506Y-117852914D01*
X125187506Y-117852914D02*
X125282744Y-117900533D01*
M02*
