%TF.GenerationSoftware,KiCad,Pcbnew,7.0.10*%
%TF.CreationDate,2024-01-25T23:58:25+01:00*%
%TF.ProjectId,daisy_01,64616973-795f-4303-912e-6b696361645f,rev?*%
%TF.SameCoordinates,Original*%
%TF.FileFunction,Legend,Top*%
%TF.FilePolarity,Positive*%
%FSLAX46Y46*%
G04 Gerber Fmt 4.6, Leading zero omitted, Abs format (unit mm)*
G04 Created by KiCad (PCBNEW 7.0.10) date 2024-01-25 23:58:25*
%MOMM*%
%LPD*%
G01*
G04 APERTURE LIST*
%ADD10C,0.150000*%
%ADD11C,0.120000*%
G04 APERTURE END LIST*
D10*
X176466667Y-120557200D02*
X176609524Y-120604819D01*
X176609524Y-120604819D02*
X176847619Y-120604819D01*
X176847619Y-120604819D02*
X176942857Y-120557200D01*
X176942857Y-120557200D02*
X176990476Y-120509580D01*
X176990476Y-120509580D02*
X177038095Y-120414342D01*
X177038095Y-120414342D02*
X177038095Y-120319104D01*
X177038095Y-120319104D02*
X176990476Y-120223866D01*
X176990476Y-120223866D02*
X176942857Y-120176247D01*
X176942857Y-120176247D02*
X176847619Y-120128628D01*
X176847619Y-120128628D02*
X176657143Y-120081009D01*
X176657143Y-120081009D02*
X176561905Y-120033390D01*
X176561905Y-120033390D02*
X176514286Y-119985771D01*
X176514286Y-119985771D02*
X176466667Y-119890533D01*
X176466667Y-119890533D02*
X176466667Y-119795295D01*
X176466667Y-119795295D02*
X176514286Y-119700057D01*
X176514286Y-119700057D02*
X176561905Y-119652438D01*
X176561905Y-119652438D02*
X176657143Y-119604819D01*
X176657143Y-119604819D02*
X176895238Y-119604819D01*
X176895238Y-119604819D02*
X177038095Y-119652438D01*
X177371429Y-119604819D02*
X177609524Y-120604819D01*
X177609524Y-120604819D02*
X177800000Y-119890533D01*
X177800000Y-119890533D02*
X177990476Y-120604819D01*
X177990476Y-120604819D02*
X178228572Y-119604819D01*
X178561905Y-119700057D02*
X178609524Y-119652438D01*
X178609524Y-119652438D02*
X178704762Y-119604819D01*
X178704762Y-119604819D02*
X178942857Y-119604819D01*
X178942857Y-119604819D02*
X179038095Y-119652438D01*
X179038095Y-119652438D02*
X179085714Y-119700057D01*
X179085714Y-119700057D02*
X179133333Y-119795295D01*
X179133333Y-119795295D02*
X179133333Y-119890533D01*
X179133333Y-119890533D02*
X179085714Y-120033390D01*
X179085714Y-120033390D02*
X178514286Y-120604819D01*
X178514286Y-120604819D02*
X179133333Y-120604819D01*
X143044819Y-108635238D02*
X142568628Y-108968571D01*
X143044819Y-109206666D02*
X142044819Y-109206666D01*
X142044819Y-109206666D02*
X142044819Y-108825714D01*
X142044819Y-108825714D02*
X142092438Y-108730476D01*
X142092438Y-108730476D02*
X142140057Y-108682857D01*
X142140057Y-108682857D02*
X142235295Y-108635238D01*
X142235295Y-108635238D02*
X142378152Y-108635238D01*
X142378152Y-108635238D02*
X142473390Y-108682857D01*
X142473390Y-108682857D02*
X142521009Y-108730476D01*
X142521009Y-108730476D02*
X142568628Y-108825714D01*
X142568628Y-108825714D02*
X142568628Y-109206666D01*
X142044819Y-108349523D02*
X143044819Y-108016190D01*
X143044819Y-108016190D02*
X142044819Y-107682857D01*
X142140057Y-107397142D02*
X142092438Y-107349523D01*
X142092438Y-107349523D02*
X142044819Y-107254285D01*
X142044819Y-107254285D02*
X142044819Y-107016190D01*
X142044819Y-107016190D02*
X142092438Y-106920952D01*
X142092438Y-106920952D02*
X142140057Y-106873333D01*
X142140057Y-106873333D02*
X142235295Y-106825714D01*
X142235295Y-106825714D02*
X142330533Y-106825714D01*
X142330533Y-106825714D02*
X142473390Y-106873333D01*
X142473390Y-106873333D02*
X143044819Y-107444761D01*
X143044819Y-107444761D02*
X143044819Y-106825714D01*
X166139580Y-123336666D02*
X166187200Y-123384285D01*
X166187200Y-123384285D02*
X166234819Y-123527142D01*
X166234819Y-123527142D02*
X166234819Y-123622380D01*
X166234819Y-123622380D02*
X166187200Y-123765237D01*
X166187200Y-123765237D02*
X166091961Y-123860475D01*
X166091961Y-123860475D02*
X165996723Y-123908094D01*
X165996723Y-123908094D02*
X165806247Y-123955713D01*
X165806247Y-123955713D02*
X165663390Y-123955713D01*
X165663390Y-123955713D02*
X165472914Y-123908094D01*
X165472914Y-123908094D02*
X165377676Y-123860475D01*
X165377676Y-123860475D02*
X165282438Y-123765237D01*
X165282438Y-123765237D02*
X165234819Y-123622380D01*
X165234819Y-123622380D02*
X165234819Y-123527142D01*
X165234819Y-123527142D02*
X165282438Y-123384285D01*
X165282438Y-123384285D02*
X165330057Y-123336666D01*
X166234819Y-122384285D02*
X166234819Y-122955713D01*
X166234819Y-122669999D02*
X165234819Y-122669999D01*
X165234819Y-122669999D02*
X165377676Y-122765237D01*
X165377676Y-122765237D02*
X165472914Y-122860475D01*
X165472914Y-122860475D02*
X165520533Y-122955713D01*
X124034819Y-108635238D02*
X123558628Y-108968571D01*
X124034819Y-109206666D02*
X123034819Y-109206666D01*
X123034819Y-109206666D02*
X123034819Y-108825714D01*
X123034819Y-108825714D02*
X123082438Y-108730476D01*
X123082438Y-108730476D02*
X123130057Y-108682857D01*
X123130057Y-108682857D02*
X123225295Y-108635238D01*
X123225295Y-108635238D02*
X123368152Y-108635238D01*
X123368152Y-108635238D02*
X123463390Y-108682857D01*
X123463390Y-108682857D02*
X123511009Y-108730476D01*
X123511009Y-108730476D02*
X123558628Y-108825714D01*
X123558628Y-108825714D02*
X123558628Y-109206666D01*
X123034819Y-108349523D02*
X124034819Y-108016190D01*
X124034819Y-108016190D02*
X123034819Y-107682857D01*
X123034819Y-107444761D02*
X123034819Y-106825714D01*
X123034819Y-106825714D02*
X123415771Y-107159047D01*
X123415771Y-107159047D02*
X123415771Y-107016190D01*
X123415771Y-107016190D02*
X123463390Y-106920952D01*
X123463390Y-106920952D02*
X123511009Y-106873333D01*
X123511009Y-106873333D02*
X123606247Y-106825714D01*
X123606247Y-106825714D02*
X123844342Y-106825714D01*
X123844342Y-106825714D02*
X123939580Y-106873333D01*
X123939580Y-106873333D02*
X123987200Y-106920952D01*
X123987200Y-106920952D02*
X124034819Y-107016190D01*
X124034819Y-107016190D02*
X124034819Y-107301904D01*
X124034819Y-107301904D02*
X123987200Y-107397142D01*
X123987200Y-107397142D02*
X123939580Y-107444761D01*
X184681905Y-103264819D02*
X184681905Y-102264819D01*
X184681905Y-102264819D02*
X184920000Y-102264819D01*
X184920000Y-102264819D02*
X185062857Y-102312438D01*
X185062857Y-102312438D02*
X185158095Y-102407676D01*
X185158095Y-102407676D02*
X185205714Y-102502914D01*
X185205714Y-102502914D02*
X185253333Y-102693390D01*
X185253333Y-102693390D02*
X185253333Y-102836247D01*
X185253333Y-102836247D02*
X185205714Y-103026723D01*
X185205714Y-103026723D02*
X185158095Y-103121961D01*
X185158095Y-103121961D02*
X185062857Y-103217200D01*
X185062857Y-103217200D02*
X184920000Y-103264819D01*
X184920000Y-103264819D02*
X184681905Y-103264819D01*
X186205714Y-103264819D02*
X185634286Y-103264819D01*
X185920000Y-103264819D02*
X185920000Y-102264819D01*
X185920000Y-102264819D02*
X185824762Y-102407676D01*
X185824762Y-102407676D02*
X185729524Y-102502914D01*
X185729524Y-102502914D02*
X185634286Y-102550533D01*
X99994819Y-122681904D02*
X100804342Y-122681904D01*
X100804342Y-122681904D02*
X100899580Y-122634285D01*
X100899580Y-122634285D02*
X100947200Y-122586666D01*
X100947200Y-122586666D02*
X100994819Y-122491428D01*
X100994819Y-122491428D02*
X100994819Y-122300952D01*
X100994819Y-122300952D02*
X100947200Y-122205714D01*
X100947200Y-122205714D02*
X100899580Y-122158095D01*
X100899580Y-122158095D02*
X100804342Y-122110476D01*
X100804342Y-122110476D02*
X99994819Y-122110476D01*
X100994819Y-121110476D02*
X100994819Y-121681904D01*
X100994819Y-121396190D02*
X99994819Y-121396190D01*
X99994819Y-121396190D02*
X100137676Y-121491428D01*
X100137676Y-121491428D02*
X100232914Y-121586666D01*
X100232914Y-121586666D02*
X100280533Y-121681904D01*
X162094819Y-108635238D02*
X161618628Y-108968571D01*
X162094819Y-109206666D02*
X161094819Y-109206666D01*
X161094819Y-109206666D02*
X161094819Y-108825714D01*
X161094819Y-108825714D02*
X161142438Y-108730476D01*
X161142438Y-108730476D02*
X161190057Y-108682857D01*
X161190057Y-108682857D02*
X161285295Y-108635238D01*
X161285295Y-108635238D02*
X161428152Y-108635238D01*
X161428152Y-108635238D02*
X161523390Y-108682857D01*
X161523390Y-108682857D02*
X161571009Y-108730476D01*
X161571009Y-108730476D02*
X161618628Y-108825714D01*
X161618628Y-108825714D02*
X161618628Y-109206666D01*
X161094819Y-108349523D02*
X162094819Y-108016190D01*
X162094819Y-108016190D02*
X161094819Y-107682857D01*
X162094819Y-106825714D02*
X162094819Y-107397142D01*
X162094819Y-107111428D02*
X161094819Y-107111428D01*
X161094819Y-107111428D02*
X161237676Y-107206666D01*
X161237676Y-107206666D02*
X161332914Y-107301904D01*
X161332914Y-107301904D02*
X161380533Y-107397142D01*
X158686667Y-127367200D02*
X158829524Y-127414819D01*
X158829524Y-127414819D02*
X159067619Y-127414819D01*
X159067619Y-127414819D02*
X159162857Y-127367200D01*
X159162857Y-127367200D02*
X159210476Y-127319580D01*
X159210476Y-127319580D02*
X159258095Y-127224342D01*
X159258095Y-127224342D02*
X159258095Y-127129104D01*
X159258095Y-127129104D02*
X159210476Y-127033866D01*
X159210476Y-127033866D02*
X159162857Y-126986247D01*
X159162857Y-126986247D02*
X159067619Y-126938628D01*
X159067619Y-126938628D02*
X158877143Y-126891009D01*
X158877143Y-126891009D02*
X158781905Y-126843390D01*
X158781905Y-126843390D02*
X158734286Y-126795771D01*
X158734286Y-126795771D02*
X158686667Y-126700533D01*
X158686667Y-126700533D02*
X158686667Y-126605295D01*
X158686667Y-126605295D02*
X158734286Y-126510057D01*
X158734286Y-126510057D02*
X158781905Y-126462438D01*
X158781905Y-126462438D02*
X158877143Y-126414819D01*
X158877143Y-126414819D02*
X159115238Y-126414819D01*
X159115238Y-126414819D02*
X159258095Y-126462438D01*
X159591429Y-126414819D02*
X159829524Y-127414819D01*
X159829524Y-127414819D02*
X160020000Y-126700533D01*
X160020000Y-126700533D02*
X160210476Y-127414819D01*
X160210476Y-127414819D02*
X160448572Y-126414819D01*
X161353333Y-127414819D02*
X160781905Y-127414819D01*
X161067619Y-127414819D02*
X161067619Y-126414819D01*
X161067619Y-126414819D02*
X160972381Y-126557676D01*
X160972381Y-126557676D02*
X160877143Y-126652914D01*
X160877143Y-126652914D02*
X160781905Y-126700533D01*
X166183333Y-112844580D02*
X166135714Y-112892200D01*
X166135714Y-112892200D02*
X165992857Y-112939819D01*
X165992857Y-112939819D02*
X165897619Y-112939819D01*
X165897619Y-112939819D02*
X165754762Y-112892200D01*
X165754762Y-112892200D02*
X165659524Y-112796961D01*
X165659524Y-112796961D02*
X165611905Y-112701723D01*
X165611905Y-112701723D02*
X165564286Y-112511247D01*
X165564286Y-112511247D02*
X165564286Y-112368390D01*
X165564286Y-112368390D02*
X165611905Y-112177914D01*
X165611905Y-112177914D02*
X165659524Y-112082676D01*
X165659524Y-112082676D02*
X165754762Y-111987438D01*
X165754762Y-111987438D02*
X165897619Y-111939819D01*
X165897619Y-111939819D02*
X165992857Y-111939819D01*
X165992857Y-111939819D02*
X166135714Y-111987438D01*
X166135714Y-111987438D02*
X166183333Y-112035057D01*
X166564286Y-112035057D02*
X166611905Y-111987438D01*
X166611905Y-111987438D02*
X166707143Y-111939819D01*
X166707143Y-111939819D02*
X166945238Y-111939819D01*
X166945238Y-111939819D02*
X167040476Y-111987438D01*
X167040476Y-111987438D02*
X167088095Y-112035057D01*
X167088095Y-112035057D02*
X167135714Y-112130295D01*
X167135714Y-112130295D02*
X167135714Y-112225533D01*
X167135714Y-112225533D02*
X167088095Y-112368390D01*
X167088095Y-112368390D02*
X166516667Y-112939819D01*
X166516667Y-112939819D02*
X167135714Y-112939819D01*
X159234285Y-131971009D02*
X159377142Y-132018628D01*
X159377142Y-132018628D02*
X159424761Y-132066247D01*
X159424761Y-132066247D02*
X159472380Y-132161485D01*
X159472380Y-132161485D02*
X159472380Y-132304342D01*
X159472380Y-132304342D02*
X159424761Y-132399580D01*
X159424761Y-132399580D02*
X159377142Y-132447200D01*
X159377142Y-132447200D02*
X159281904Y-132494819D01*
X159281904Y-132494819D02*
X158900952Y-132494819D01*
X158900952Y-132494819D02*
X158900952Y-131494819D01*
X158900952Y-131494819D02*
X159234285Y-131494819D01*
X159234285Y-131494819D02*
X159329523Y-131542438D01*
X159329523Y-131542438D02*
X159377142Y-131590057D01*
X159377142Y-131590057D02*
X159424761Y-131685295D01*
X159424761Y-131685295D02*
X159424761Y-131780533D01*
X159424761Y-131780533D02*
X159377142Y-131875771D01*
X159377142Y-131875771D02*
X159329523Y-131923390D01*
X159329523Y-131923390D02*
X159234285Y-131971009D01*
X159234285Y-131971009D02*
X158900952Y-131971009D01*
X159758095Y-131494819D02*
X160329523Y-131494819D01*
X160043809Y-132494819D02*
X160043809Y-131494819D01*
X161186666Y-132494819D02*
X160615238Y-132494819D01*
X160900952Y-132494819D02*
X160900952Y-131494819D01*
X160900952Y-131494819D02*
X160805714Y-131637676D01*
X160805714Y-131637676D02*
X160710476Y-131732914D01*
X160710476Y-131732914D02*
X160615238Y-131780533D01*
X103674819Y-108590238D02*
X103198628Y-108923571D01*
X103674819Y-109161666D02*
X102674819Y-109161666D01*
X102674819Y-109161666D02*
X102674819Y-108780714D01*
X102674819Y-108780714D02*
X102722438Y-108685476D01*
X102722438Y-108685476D02*
X102770057Y-108637857D01*
X102770057Y-108637857D02*
X102865295Y-108590238D01*
X102865295Y-108590238D02*
X103008152Y-108590238D01*
X103008152Y-108590238D02*
X103103390Y-108637857D01*
X103103390Y-108637857D02*
X103151009Y-108685476D01*
X103151009Y-108685476D02*
X103198628Y-108780714D01*
X103198628Y-108780714D02*
X103198628Y-109161666D01*
X102674819Y-108304523D02*
X103674819Y-107971190D01*
X103674819Y-107971190D02*
X102674819Y-107637857D01*
X103008152Y-106875952D02*
X103674819Y-106875952D01*
X102627200Y-107114047D02*
X103341485Y-107352142D01*
X103341485Y-107352142D02*
X103341485Y-106733095D01*
X188505180Y-126666666D02*
X187790895Y-126666666D01*
X187790895Y-126666666D02*
X187648038Y-126619047D01*
X187648038Y-126619047D02*
X187552800Y-126523809D01*
X187552800Y-126523809D02*
X187505180Y-126380952D01*
X187505180Y-126380952D02*
X187505180Y-126285714D01*
X188505180Y-127047619D02*
X188505180Y-127666666D01*
X188505180Y-127666666D02*
X188124228Y-127333333D01*
X188124228Y-127333333D02*
X188124228Y-127476190D01*
X188124228Y-127476190D02*
X188076609Y-127571428D01*
X188076609Y-127571428D02*
X188028990Y-127619047D01*
X188028990Y-127619047D02*
X187933752Y-127666666D01*
X187933752Y-127666666D02*
X187695657Y-127666666D01*
X187695657Y-127666666D02*
X187600419Y-127619047D01*
X187600419Y-127619047D02*
X187552800Y-127571428D01*
X187552800Y-127571428D02*
X187505180Y-127476190D01*
X187505180Y-127476190D02*
X187505180Y-127190476D01*
X187505180Y-127190476D02*
X187552800Y-127095238D01*
X187552800Y-127095238D02*
X187600419Y-127047619D01*
X158654761Y-120950057D02*
X158559523Y-120902438D01*
X158559523Y-120902438D02*
X158464285Y-120807200D01*
X158464285Y-120807200D02*
X158321428Y-120664342D01*
X158321428Y-120664342D02*
X158226190Y-120616723D01*
X158226190Y-120616723D02*
X158130952Y-120616723D01*
X158178571Y-120854819D02*
X158083333Y-120807200D01*
X158083333Y-120807200D02*
X157988095Y-120711961D01*
X157988095Y-120711961D02*
X157940476Y-120521485D01*
X157940476Y-120521485D02*
X157940476Y-120188152D01*
X157940476Y-120188152D02*
X157988095Y-119997676D01*
X157988095Y-119997676D02*
X158083333Y-119902438D01*
X158083333Y-119902438D02*
X158178571Y-119854819D01*
X158178571Y-119854819D02*
X158369047Y-119854819D01*
X158369047Y-119854819D02*
X158464285Y-119902438D01*
X158464285Y-119902438D02*
X158559523Y-119997676D01*
X158559523Y-119997676D02*
X158607142Y-120188152D01*
X158607142Y-120188152D02*
X158607142Y-120521485D01*
X158607142Y-120521485D02*
X158559523Y-120711961D01*
X158559523Y-120711961D02*
X158464285Y-120807200D01*
X158464285Y-120807200D02*
X158369047Y-120854819D01*
X158369047Y-120854819D02*
X158178571Y-120854819D01*
X159559523Y-120854819D02*
X158988095Y-120854819D01*
X159273809Y-120854819D02*
X159273809Y-119854819D01*
X159273809Y-119854819D02*
X159178571Y-119997676D01*
X159178571Y-119997676D02*
X159083333Y-120092914D01*
X159083333Y-120092914D02*
X158988095Y-120140533D01*
X183425180Y-126666666D02*
X182710895Y-126666666D01*
X182710895Y-126666666D02*
X182568038Y-126619047D01*
X182568038Y-126619047D02*
X182472800Y-126523809D01*
X182472800Y-126523809D02*
X182425180Y-126380952D01*
X182425180Y-126380952D02*
X182425180Y-126285714D01*
X182425180Y-127666666D02*
X182425180Y-127095238D01*
X182425180Y-127380952D02*
X183425180Y-127380952D01*
X183425180Y-127380952D02*
X183282323Y-127285714D01*
X183282323Y-127285714D02*
X183187085Y-127190476D01*
X183187085Y-127190476D02*
X183139466Y-127095238D01*
X171283333Y-127624819D02*
X170950000Y-127148628D01*
X170711905Y-127624819D02*
X170711905Y-126624819D01*
X170711905Y-126624819D02*
X171092857Y-126624819D01*
X171092857Y-126624819D02*
X171188095Y-126672438D01*
X171188095Y-126672438D02*
X171235714Y-126720057D01*
X171235714Y-126720057D02*
X171283333Y-126815295D01*
X171283333Y-126815295D02*
X171283333Y-126958152D01*
X171283333Y-126958152D02*
X171235714Y-127053390D01*
X171235714Y-127053390D02*
X171188095Y-127101009D01*
X171188095Y-127101009D02*
X171092857Y-127148628D01*
X171092857Y-127148628D02*
X170711905Y-127148628D01*
X171664286Y-126720057D02*
X171711905Y-126672438D01*
X171711905Y-126672438D02*
X171807143Y-126624819D01*
X171807143Y-126624819D02*
X172045238Y-126624819D01*
X172045238Y-126624819D02*
X172140476Y-126672438D01*
X172140476Y-126672438D02*
X172188095Y-126720057D01*
X172188095Y-126720057D02*
X172235714Y-126815295D01*
X172235714Y-126815295D02*
X172235714Y-126910533D01*
X172235714Y-126910533D02*
X172188095Y-127053390D01*
X172188095Y-127053390D02*
X171616667Y-127624819D01*
X171616667Y-127624819D02*
X172235714Y-127624819D01*
X176363333Y-117124819D02*
X176030000Y-116648628D01*
X175791905Y-117124819D02*
X175791905Y-116124819D01*
X175791905Y-116124819D02*
X176172857Y-116124819D01*
X176172857Y-116124819D02*
X176268095Y-116172438D01*
X176268095Y-116172438D02*
X176315714Y-116220057D01*
X176315714Y-116220057D02*
X176363333Y-116315295D01*
X176363333Y-116315295D02*
X176363333Y-116458152D01*
X176363333Y-116458152D02*
X176315714Y-116553390D01*
X176315714Y-116553390D02*
X176268095Y-116601009D01*
X176268095Y-116601009D02*
X176172857Y-116648628D01*
X176172857Y-116648628D02*
X175791905Y-116648628D01*
X177315714Y-117124819D02*
X176744286Y-117124819D01*
X177030000Y-117124819D02*
X177030000Y-116124819D01*
X177030000Y-116124819D02*
X176934762Y-116267676D01*
X176934762Y-116267676D02*
X176839524Y-116362914D01*
X176839524Y-116362914D02*
X176744286Y-116410533D01*
X188505180Y-116506666D02*
X187790895Y-116506666D01*
X187790895Y-116506666D02*
X187648038Y-116459047D01*
X187648038Y-116459047D02*
X187552800Y-116363809D01*
X187552800Y-116363809D02*
X187505180Y-116220952D01*
X187505180Y-116220952D02*
X187505180Y-116125714D01*
X188409942Y-116935238D02*
X188457561Y-116982857D01*
X188457561Y-116982857D02*
X188505180Y-117078095D01*
X188505180Y-117078095D02*
X188505180Y-117316190D01*
X188505180Y-117316190D02*
X188457561Y-117411428D01*
X188457561Y-117411428D02*
X188409942Y-117459047D01*
X188409942Y-117459047D02*
X188314704Y-117506666D01*
X188314704Y-117506666D02*
X188219466Y-117506666D01*
X188219466Y-117506666D02*
X188076609Y-117459047D01*
X188076609Y-117459047D02*
X187505180Y-116887619D01*
X187505180Y-116887619D02*
X187505180Y-117506666D01*
D11*
%TO.C,RV2*%
X145470000Y-82920000D02*
X151710000Y-82920000D01*
X151710000Y-95920000D02*
X151710000Y-82920000D01*
X145470000Y-95920000D02*
X145470000Y-82920000D01*
X144970000Y-95920000D02*
X152210000Y-95920000D01*
X152210000Y-102920000D02*
X152210000Y-95920000D01*
X144970000Y-102920000D02*
X144970000Y-95920000D01*
X143720000Y-102920000D02*
X153460000Y-102920000D01*
X153460000Y-110215000D02*
X153460000Y-102920000D01*
X143720000Y-110215000D02*
X143720000Y-102920000D01*
X143720000Y-110215000D02*
X153460000Y-110215000D01*
%TO.C,C1*%
X168341000Y-126670241D02*
X168341000Y-126040241D01*
X168026000Y-126355241D02*
X168656000Y-126355241D01*
X166950000Y-123170000D02*
X173410000Y-123170000D01*
X166950000Y-123130000D02*
X173410000Y-123130000D01*
X166950000Y-123090000D02*
X173410000Y-123090000D01*
X166952000Y-123050000D02*
X173408000Y-123050000D01*
X166953000Y-123010000D02*
X173407000Y-123010000D01*
X166956000Y-122970000D02*
X173404000Y-122970000D01*
X166958000Y-122930000D02*
X169140000Y-122930000D01*
X171220000Y-122930000D02*
X173402000Y-122930000D01*
X166962000Y-122890000D02*
X169140000Y-122890000D01*
X171220000Y-122890000D02*
X173398000Y-122890000D01*
X166965000Y-122850000D02*
X169140000Y-122850000D01*
X171220000Y-122850000D02*
X173395000Y-122850000D01*
X166969000Y-122810000D02*
X169140000Y-122810000D01*
X171220000Y-122810000D02*
X173391000Y-122810000D01*
X166974000Y-122770000D02*
X169140000Y-122770000D01*
X171220000Y-122770000D02*
X173386000Y-122770000D01*
X166979000Y-122730000D02*
X169140000Y-122730000D01*
X171220000Y-122730000D02*
X173381000Y-122730000D01*
X166985000Y-122690000D02*
X169140000Y-122690000D01*
X171220000Y-122690000D02*
X173375000Y-122690000D01*
X166991000Y-122650000D02*
X169140000Y-122650000D01*
X171220000Y-122650000D02*
X173369000Y-122650000D01*
X166998000Y-122610000D02*
X169140000Y-122610000D01*
X171220000Y-122610000D02*
X173362000Y-122610000D01*
X167005000Y-122570000D02*
X169140000Y-122570000D01*
X171220000Y-122570000D02*
X173355000Y-122570000D01*
X167013000Y-122530000D02*
X169140000Y-122530000D01*
X171220000Y-122530000D02*
X173347000Y-122530000D01*
X167021000Y-122490000D02*
X169140000Y-122490000D01*
X171220000Y-122490000D02*
X173339000Y-122490000D01*
X167030000Y-122449000D02*
X169140000Y-122449000D01*
X171220000Y-122449000D02*
X173330000Y-122449000D01*
X167039000Y-122409000D02*
X169140000Y-122409000D01*
X171220000Y-122409000D02*
X173321000Y-122409000D01*
X167049000Y-122369000D02*
X169140000Y-122369000D01*
X171220000Y-122369000D02*
X173311000Y-122369000D01*
X167059000Y-122329000D02*
X169140000Y-122329000D01*
X171220000Y-122329000D02*
X173301000Y-122329000D01*
X167070000Y-122289000D02*
X169140000Y-122289000D01*
X171220000Y-122289000D02*
X173290000Y-122289000D01*
X167082000Y-122249000D02*
X169140000Y-122249000D01*
X171220000Y-122249000D02*
X173278000Y-122249000D01*
X167094000Y-122209000D02*
X169140000Y-122209000D01*
X171220000Y-122209000D02*
X173266000Y-122209000D01*
X167106000Y-122169000D02*
X169140000Y-122169000D01*
X171220000Y-122169000D02*
X173254000Y-122169000D01*
X167119000Y-122129000D02*
X169140000Y-122129000D01*
X171220000Y-122129000D02*
X173241000Y-122129000D01*
X167133000Y-122089000D02*
X169140000Y-122089000D01*
X171220000Y-122089000D02*
X173227000Y-122089000D01*
X167147000Y-122049000D02*
X169140000Y-122049000D01*
X171220000Y-122049000D02*
X173213000Y-122049000D01*
X167162000Y-122009000D02*
X169140000Y-122009000D01*
X171220000Y-122009000D02*
X173198000Y-122009000D01*
X167178000Y-121969000D02*
X169140000Y-121969000D01*
X171220000Y-121969000D02*
X173182000Y-121969000D01*
X167194000Y-121929000D02*
X169140000Y-121929000D01*
X171220000Y-121929000D02*
X173166000Y-121929000D01*
X167210000Y-121889000D02*
X169140000Y-121889000D01*
X171220000Y-121889000D02*
X173150000Y-121889000D01*
X167228000Y-121849000D02*
X169140000Y-121849000D01*
X171220000Y-121849000D02*
X173132000Y-121849000D01*
X167246000Y-121809000D02*
X169140000Y-121809000D01*
X171220000Y-121809000D02*
X173114000Y-121809000D01*
X167264000Y-121769000D02*
X169140000Y-121769000D01*
X171220000Y-121769000D02*
X173096000Y-121769000D01*
X167284000Y-121729000D02*
X169140000Y-121729000D01*
X171220000Y-121729000D02*
X173076000Y-121729000D01*
X167304000Y-121689000D02*
X169140000Y-121689000D01*
X171220000Y-121689000D02*
X173056000Y-121689000D01*
X167324000Y-121649000D02*
X169140000Y-121649000D01*
X171220000Y-121649000D02*
X173036000Y-121649000D01*
X167346000Y-121609000D02*
X169140000Y-121609000D01*
X171220000Y-121609000D02*
X173014000Y-121609000D01*
X167368000Y-121569000D02*
X169140000Y-121569000D01*
X171220000Y-121569000D02*
X172992000Y-121569000D01*
X167390000Y-121529000D02*
X169140000Y-121529000D01*
X171220000Y-121529000D02*
X172970000Y-121529000D01*
X167414000Y-121489000D02*
X169140000Y-121489000D01*
X171220000Y-121489000D02*
X172946000Y-121489000D01*
X167438000Y-121449000D02*
X169140000Y-121449000D01*
X171220000Y-121449000D02*
X172922000Y-121449000D01*
X167464000Y-121409000D02*
X169140000Y-121409000D01*
X171220000Y-121409000D02*
X172896000Y-121409000D01*
X167490000Y-121369000D02*
X169140000Y-121369000D01*
X171220000Y-121369000D02*
X172870000Y-121369000D01*
X167516000Y-121329000D02*
X169140000Y-121329000D01*
X171220000Y-121329000D02*
X172844000Y-121329000D01*
X167544000Y-121289000D02*
X169140000Y-121289000D01*
X171220000Y-121289000D02*
X172816000Y-121289000D01*
X167573000Y-121249000D02*
X169140000Y-121249000D01*
X171220000Y-121249000D02*
X172787000Y-121249000D01*
X167602000Y-121209000D02*
X169140000Y-121209000D01*
X171220000Y-121209000D02*
X172758000Y-121209000D01*
X167632000Y-121169000D02*
X169140000Y-121169000D01*
X171220000Y-121169000D02*
X172728000Y-121169000D01*
X167664000Y-121129000D02*
X169140000Y-121129000D01*
X171220000Y-121129000D02*
X172696000Y-121129000D01*
X167696000Y-121089000D02*
X169140000Y-121089000D01*
X171220000Y-121089000D02*
X172664000Y-121089000D01*
X167730000Y-121049000D02*
X169140000Y-121049000D01*
X171220000Y-121049000D02*
X172630000Y-121049000D01*
X167764000Y-121009000D02*
X169140000Y-121009000D01*
X171220000Y-121009000D02*
X172596000Y-121009000D01*
X167800000Y-120969000D02*
X169140000Y-120969000D01*
X171220000Y-120969000D02*
X172560000Y-120969000D01*
X167837000Y-120929000D02*
X169140000Y-120929000D01*
X171220000Y-120929000D02*
X172523000Y-120929000D01*
X167875000Y-120889000D02*
X169140000Y-120889000D01*
X171220000Y-120889000D02*
X172485000Y-120889000D01*
X167915000Y-120849000D02*
X172445000Y-120849000D01*
X167956000Y-120809000D02*
X172404000Y-120809000D01*
X167998000Y-120769000D02*
X172362000Y-120769000D01*
X168043000Y-120729000D02*
X172317000Y-120729000D01*
X168088000Y-120689000D02*
X172272000Y-120689000D01*
X168136000Y-120649000D02*
X172224000Y-120649000D01*
X168185000Y-120609000D02*
X172175000Y-120609000D01*
X168236000Y-120569000D02*
X172124000Y-120569000D01*
X168290000Y-120529000D02*
X172070000Y-120529000D01*
X168346000Y-120489000D02*
X172014000Y-120489000D01*
X168404000Y-120449000D02*
X171956000Y-120449000D01*
X168466000Y-120409000D02*
X171894000Y-120409000D01*
X168530000Y-120369000D02*
X171830000Y-120369000D01*
X168599000Y-120329000D02*
X171761000Y-120329000D01*
X168671000Y-120289000D02*
X171689000Y-120289000D01*
X168748000Y-120249000D02*
X171612000Y-120249000D01*
X168830000Y-120209000D02*
X171530000Y-120209000D01*
X168918000Y-120169000D02*
X171442000Y-120169000D01*
X169015000Y-120129000D02*
X171345000Y-120129000D01*
X169121000Y-120089000D02*
X171239000Y-120089000D01*
X169240000Y-120049000D02*
X171120000Y-120049000D01*
X169378000Y-120009000D02*
X170982000Y-120009000D01*
X169547000Y-119969000D02*
X170813000Y-119969000D01*
X169778000Y-119929000D02*
X170582000Y-119929000D01*
X173450000Y-123170000D02*
G75*
G03*
X166910000Y-123170000I-3270000J0D01*
G01*
X166910000Y-123170000D02*
G75*
G03*
X173450000Y-123170000I3270000J0D01*
G01*
%TO.C,RV3*%
X126460000Y-82920000D02*
X132700000Y-82920000D01*
X132700000Y-95920000D02*
X132700000Y-82920000D01*
X126460000Y-95920000D02*
X126460000Y-82920000D01*
X125960000Y-95920000D02*
X133200000Y-95920000D01*
X133200000Y-102920000D02*
X133200000Y-95920000D01*
X125960000Y-102920000D02*
X125960000Y-95920000D01*
X124710000Y-102920000D02*
X134450000Y-102920000D01*
X134450000Y-110215000D02*
X134450000Y-102920000D01*
X124710000Y-110215000D02*
X124710000Y-102920000D01*
X124710000Y-110215000D02*
X134450000Y-110215000D01*
%TO.C,D1*%
X180320000Y-105180000D02*
X180320000Y-108270000D01*
X185869999Y-106725462D02*
G75*
G03*
X180320001Y-105180170I-2989999J462D01*
G01*
X180320000Y-108269830D02*
G75*
G03*
X185870000Y-106724538I2560000J1544830D01*
G01*
X185380000Y-106725000D02*
G75*
G03*
X180380000Y-106725000I-2500000J0D01*
G01*
X180380000Y-106725000D02*
G75*
G03*
X185380000Y-106725000I2500000J0D01*
G01*
%TO.C,U1*%
X102440000Y-131120000D02*
X104840000Y-131120000D01*
X102740000Y-130820000D02*
X102740000Y-113020000D01*
X153740000Y-130820000D02*
X102740000Y-130820000D01*
X102440000Y-128820000D02*
X102440000Y-131120000D01*
X102740000Y-128340000D02*
X153740000Y-128340000D01*
X101540000Y-125920000D02*
X101540000Y-117920000D01*
X102740000Y-125920000D02*
X101540000Y-125920000D01*
X101540000Y-117920000D02*
X102740000Y-117920000D01*
X102740000Y-115540000D02*
X153740000Y-115540000D01*
X102740000Y-113020000D02*
X153740000Y-113020000D01*
X153740000Y-113020000D02*
X153740000Y-130820000D01*
%TO.C,RV1*%
X164520000Y-82920000D02*
X170760000Y-82920000D01*
X170760000Y-95920000D02*
X170760000Y-82920000D01*
X164520000Y-95920000D02*
X164520000Y-82920000D01*
X164020000Y-95920000D02*
X171260000Y-95920000D01*
X171260000Y-102920000D02*
X171260000Y-95920000D01*
X164020000Y-102920000D02*
X164020000Y-95920000D01*
X162770000Y-102920000D02*
X172510000Y-102920000D01*
X172510000Y-110215000D02*
X172510000Y-102920000D01*
X162770000Y-110215000D02*
X162770000Y-102920000D01*
X162770000Y-110215000D02*
X172510000Y-110215000D01*
%TO.C,SW1*%
X164060000Y-125960000D02*
X164060000Y-122960000D01*
X164060000Y-125960000D02*
X155960000Y-125960000D01*
X155960000Y-122960000D02*
X164060000Y-122960000D01*
X155960000Y-122960000D02*
X155960000Y-125960000D01*
%TO.C,C2*%
X162849759Y-113731000D02*
X163479759Y-113731000D01*
X163164759Y-113416000D02*
X163164759Y-114046000D01*
X166350000Y-112340000D02*
X166350000Y-118800000D01*
X166390000Y-112340000D02*
X166390000Y-118800000D01*
X166430000Y-112340000D02*
X166430000Y-118800000D01*
X166470000Y-112342000D02*
X166470000Y-118798000D01*
X166510000Y-112343000D02*
X166510000Y-118797000D01*
X166550000Y-112346000D02*
X166550000Y-118794000D01*
X166590000Y-112348000D02*
X166590000Y-114530000D01*
X166590000Y-116610000D02*
X166590000Y-118792000D01*
X166630000Y-112352000D02*
X166630000Y-114530000D01*
X166630000Y-116610000D02*
X166630000Y-118788000D01*
X166670000Y-112355000D02*
X166670000Y-114530000D01*
X166670000Y-116610000D02*
X166670000Y-118785000D01*
X166710000Y-112359000D02*
X166710000Y-114530000D01*
X166710000Y-116610000D02*
X166710000Y-118781000D01*
X166750000Y-112364000D02*
X166750000Y-114530000D01*
X166750000Y-116610000D02*
X166750000Y-118776000D01*
X166790000Y-112369000D02*
X166790000Y-114530000D01*
X166790000Y-116610000D02*
X166790000Y-118771000D01*
X166830000Y-112375000D02*
X166830000Y-114530000D01*
X166830000Y-116610000D02*
X166830000Y-118765000D01*
X166870000Y-112381000D02*
X166870000Y-114530000D01*
X166870000Y-116610000D02*
X166870000Y-118759000D01*
X166910000Y-112388000D02*
X166910000Y-114530000D01*
X166910000Y-116610000D02*
X166910000Y-118752000D01*
X166950000Y-112395000D02*
X166950000Y-114530000D01*
X166950000Y-116610000D02*
X166950000Y-118745000D01*
X166990000Y-112403000D02*
X166990000Y-114530000D01*
X166990000Y-116610000D02*
X166990000Y-118737000D01*
X167030000Y-112411000D02*
X167030000Y-114530000D01*
X167030000Y-116610000D02*
X167030000Y-118729000D01*
X167071000Y-112420000D02*
X167071000Y-114530000D01*
X167071000Y-116610000D02*
X167071000Y-118720000D01*
X167111000Y-112429000D02*
X167111000Y-114530000D01*
X167111000Y-116610000D02*
X167111000Y-118711000D01*
X167151000Y-112439000D02*
X167151000Y-114530000D01*
X167151000Y-116610000D02*
X167151000Y-118701000D01*
X167191000Y-112449000D02*
X167191000Y-114530000D01*
X167191000Y-116610000D02*
X167191000Y-118691000D01*
X167231000Y-112460000D02*
X167231000Y-114530000D01*
X167231000Y-116610000D02*
X167231000Y-118680000D01*
X167271000Y-112472000D02*
X167271000Y-114530000D01*
X167271000Y-116610000D02*
X167271000Y-118668000D01*
X167311000Y-112484000D02*
X167311000Y-114530000D01*
X167311000Y-116610000D02*
X167311000Y-118656000D01*
X167351000Y-112496000D02*
X167351000Y-114530000D01*
X167351000Y-116610000D02*
X167351000Y-118644000D01*
X167391000Y-112509000D02*
X167391000Y-114530000D01*
X167391000Y-116610000D02*
X167391000Y-118631000D01*
X167431000Y-112523000D02*
X167431000Y-114530000D01*
X167431000Y-116610000D02*
X167431000Y-118617000D01*
X167471000Y-112537000D02*
X167471000Y-114530000D01*
X167471000Y-116610000D02*
X167471000Y-118603000D01*
X167511000Y-112552000D02*
X167511000Y-114530000D01*
X167511000Y-116610000D02*
X167511000Y-118588000D01*
X167551000Y-112568000D02*
X167551000Y-114530000D01*
X167551000Y-116610000D02*
X167551000Y-118572000D01*
X167591000Y-112584000D02*
X167591000Y-114530000D01*
X167591000Y-116610000D02*
X167591000Y-118556000D01*
X167631000Y-112600000D02*
X167631000Y-114530000D01*
X167631000Y-116610000D02*
X167631000Y-118540000D01*
X167671000Y-112618000D02*
X167671000Y-114530000D01*
X167671000Y-116610000D02*
X167671000Y-118522000D01*
X167711000Y-112636000D02*
X167711000Y-114530000D01*
X167711000Y-116610000D02*
X167711000Y-118504000D01*
X167751000Y-112654000D02*
X167751000Y-114530000D01*
X167751000Y-116610000D02*
X167751000Y-118486000D01*
X167791000Y-112674000D02*
X167791000Y-114530000D01*
X167791000Y-116610000D02*
X167791000Y-118466000D01*
X167831000Y-112694000D02*
X167831000Y-114530000D01*
X167831000Y-116610000D02*
X167831000Y-118446000D01*
X167871000Y-112714000D02*
X167871000Y-114530000D01*
X167871000Y-116610000D02*
X167871000Y-118426000D01*
X167911000Y-112736000D02*
X167911000Y-114530000D01*
X167911000Y-116610000D02*
X167911000Y-118404000D01*
X167951000Y-112758000D02*
X167951000Y-114530000D01*
X167951000Y-116610000D02*
X167951000Y-118382000D01*
X167991000Y-112780000D02*
X167991000Y-114530000D01*
X167991000Y-116610000D02*
X167991000Y-118360000D01*
X168031000Y-112804000D02*
X168031000Y-114530000D01*
X168031000Y-116610000D02*
X168031000Y-118336000D01*
X168071000Y-112828000D02*
X168071000Y-114530000D01*
X168071000Y-116610000D02*
X168071000Y-118312000D01*
X168111000Y-112854000D02*
X168111000Y-114530000D01*
X168111000Y-116610000D02*
X168111000Y-118286000D01*
X168151000Y-112880000D02*
X168151000Y-114530000D01*
X168151000Y-116610000D02*
X168151000Y-118260000D01*
X168191000Y-112906000D02*
X168191000Y-114530000D01*
X168191000Y-116610000D02*
X168191000Y-118234000D01*
X168231000Y-112934000D02*
X168231000Y-114530000D01*
X168231000Y-116610000D02*
X168231000Y-118206000D01*
X168271000Y-112963000D02*
X168271000Y-114530000D01*
X168271000Y-116610000D02*
X168271000Y-118177000D01*
X168311000Y-112992000D02*
X168311000Y-114530000D01*
X168311000Y-116610000D02*
X168311000Y-118148000D01*
X168351000Y-113022000D02*
X168351000Y-114530000D01*
X168351000Y-116610000D02*
X168351000Y-118118000D01*
X168391000Y-113054000D02*
X168391000Y-114530000D01*
X168391000Y-116610000D02*
X168391000Y-118086000D01*
X168431000Y-113086000D02*
X168431000Y-114530000D01*
X168431000Y-116610000D02*
X168431000Y-118054000D01*
X168471000Y-113120000D02*
X168471000Y-114530000D01*
X168471000Y-116610000D02*
X168471000Y-118020000D01*
X168511000Y-113154000D02*
X168511000Y-114530000D01*
X168511000Y-116610000D02*
X168511000Y-117986000D01*
X168551000Y-113190000D02*
X168551000Y-114530000D01*
X168551000Y-116610000D02*
X168551000Y-117950000D01*
X168591000Y-113227000D02*
X168591000Y-114530000D01*
X168591000Y-116610000D02*
X168591000Y-117913000D01*
X168631000Y-113265000D02*
X168631000Y-114530000D01*
X168631000Y-116610000D02*
X168631000Y-117875000D01*
X168671000Y-113305000D02*
X168671000Y-117835000D01*
X168711000Y-113346000D02*
X168711000Y-117794000D01*
X168751000Y-113388000D02*
X168751000Y-117752000D01*
X168791000Y-113433000D02*
X168791000Y-117707000D01*
X168831000Y-113478000D02*
X168831000Y-117662000D01*
X168871000Y-113526000D02*
X168871000Y-117614000D01*
X168911000Y-113575000D02*
X168911000Y-117565000D01*
X168951000Y-113626000D02*
X168951000Y-117514000D01*
X168991000Y-113680000D02*
X168991000Y-117460000D01*
X169031000Y-113736000D02*
X169031000Y-117404000D01*
X169071000Y-113794000D02*
X169071000Y-117346000D01*
X169111000Y-113856000D02*
X169111000Y-117284000D01*
X169151000Y-113920000D02*
X169151000Y-117220000D01*
X169191000Y-113989000D02*
X169191000Y-117151000D01*
X169231000Y-114061000D02*
X169231000Y-117079000D01*
X169271000Y-114138000D02*
X169271000Y-117002000D01*
X169311000Y-114220000D02*
X169311000Y-116920000D01*
X169351000Y-114308000D02*
X169351000Y-116832000D01*
X169391000Y-114405000D02*
X169391000Y-116735000D01*
X169431000Y-114511000D02*
X169431000Y-116629000D01*
X169471000Y-114630000D02*
X169471000Y-116510000D01*
X169511000Y-114768000D02*
X169511000Y-116372000D01*
X169551000Y-114937000D02*
X169551000Y-116203000D01*
X169591000Y-115168000D02*
X169591000Y-115972000D01*
X169620000Y-115570000D02*
G75*
G03*
X163080000Y-115570000I-3270000J0D01*
G01*
X163080000Y-115570000D02*
G75*
G03*
X169620000Y-115570000I3270000J0D01*
G01*
%TO.C,BT1*%
X164060000Y-131040000D02*
X164060000Y-128040000D01*
X164060000Y-131040000D02*
X155960000Y-131040000D01*
X155960000Y-128040000D02*
X164060000Y-128040000D01*
X155960000Y-128040000D02*
X155960000Y-131040000D01*
%TO.C,RV4*%
X106100000Y-82875000D02*
X112340000Y-82875000D01*
X112340000Y-95875000D02*
X112340000Y-82875000D01*
X106100000Y-95875000D02*
X106100000Y-82875000D01*
X105600000Y-95875000D02*
X112840000Y-95875000D01*
X112840000Y-102875000D02*
X112840000Y-95875000D01*
X105600000Y-102875000D02*
X105600000Y-95875000D01*
X104350000Y-102875000D02*
X114090000Y-102875000D01*
X114090000Y-110170000D02*
X114090000Y-102875000D01*
X104350000Y-110170000D02*
X104350000Y-102875000D01*
X104350000Y-110170000D02*
X114090000Y-110170000D01*
%TO.C,J3*%
X186690000Y-123190000D02*
X184150000Y-123190000D01*
X184150000Y-123190000D02*
X184150000Y-130810000D01*
X184150000Y-130810000D02*
X186690000Y-130810000D01*
X186690000Y-130810000D02*
X186690000Y-123190000D01*
%TO.C,Q1*%
X160550000Y-114990000D02*
X156950000Y-114990000D01*
X158750000Y-119440000D02*
G75*
G03*
X160588478Y-115001522I0J2600000D01*
G01*
X156911522Y-115001522D02*
G75*
G03*
X158750000Y-119440000I1838478J-1838478D01*
G01*
%TO.C,J1*%
X181610000Y-123190000D02*
X179070000Y-123190000D01*
X179070000Y-123190000D02*
X179070000Y-130810000D01*
X179070000Y-130810000D02*
X181610000Y-130810000D01*
X181610000Y-130810000D02*
X181610000Y-123190000D01*
%TO.C,R2*%
X168180000Y-128170000D02*
X174720000Y-128170000D01*
X168180000Y-128500000D02*
X168180000Y-128170000D01*
X168180000Y-130580000D02*
X168180000Y-130910000D01*
X168180000Y-130910000D02*
X174720000Y-130910000D01*
X174720000Y-128170000D02*
X174720000Y-128500000D01*
X174720000Y-130910000D02*
X174720000Y-130580000D01*
%TO.C,R1*%
X179800000Y-115670000D02*
X173260000Y-115670000D01*
X179800000Y-115340000D02*
X179800000Y-115670000D01*
X179800000Y-113260000D02*
X179800000Y-112930000D01*
X179800000Y-112930000D02*
X173260000Y-112930000D01*
X173260000Y-115670000D02*
X173260000Y-115340000D01*
X173260000Y-112930000D02*
X173260000Y-113260000D01*
%TO.C,J2*%
X186690000Y-113030000D02*
X184150000Y-113030000D01*
X184150000Y-113030000D02*
X184150000Y-120650000D01*
X184150000Y-120650000D02*
X186690000Y-120650000D01*
X186690000Y-120650000D02*
X186690000Y-113030000D01*
%TD*%
M02*
